<svg xmlns="http://www.w3.org/2000/svg" xmlns:xlink="http://www.w3.org/1999/xlink" width="500" zoomAndPan="magnify" viewBox="0 0 375 374.999991" height="500" preserveAspectRatio="xMidYMid meet" version="1.0"><defs><clipPath id="0e54e6573d"><path d="M 101.523438 100.347656 L 194 100.347656 L 194 193 L 101.523438 193 Z M 101.523438 100.347656 " clip-rule="nonzero"/></clipPath><clipPath id="0e69fb0abe"><path d="M 118 199 L 194 199 L 194 274.347656 L 118 274.347656 Z M 118 199 " clip-rule="nonzero"/></clipPath><clipPath id="e41b6030f2"><path d="M 201 121 L 273.273438 121 L 273.273438 193 L 201 193 Z M 201 121 " clip-rule="nonzero"/></clipPath></defs><g clip-path="url(#0e54e6573d)"><path fill="#48bbc6" d="M 141.246094 177.789062 L 179.128906 177.789062 L 179.128906 139.925781 L 193.414062 139.925781 L 193.414062 100.347656 L 101.597656 100.347656 L 101.597656 192.109375 L 141.246094 192.109375 Z M 141.246094 177.789062 " fill-opacity="1" fill-rule="evenodd"/></g><g clip-path="url(#0e69fb0abe)"><path fill="#6ca8da" d="M 148.585938 214.472656 L 141.246094 214.472656 L 141.246094 199.941406 L 118.960938 199.941406 L 118.960938 274.347656 L 193.414062 274.347656 L 193.414062 252.335938 L 179.128906 252.335938 L 179.128906 214.472656 Z M 148.585938 214.472656 " fill-opacity="1" fill-rule="evenodd"/></g><g clip-path="url(#e41b6030f2)"><path fill="#6ca8da" d="M 223.179688 177.789062 L 253.722656 177.789062 L 253.722656 192.507812 L 273.203125 192.507812 L 273.203125 121.019531 L 201.671875 121.019531 L 201.671875 139.925781 L 215.835938 139.925781 L 215.835938 177.789062 Z M 223.179688 177.789062 " fill-opacity="1" fill-rule="evenodd"/></g><path fill="#48bbc6" d="M 261.0625 200.363281 L 253.722656 200.363281 L 253.722656 214.472656 L 215.835938 214.472656 L 215.835938 252.335938 L 201.671875 252.335938 L 201.671875 259.671875 L 261.0625 259.671875 Z M 261.0625 200.363281 " fill-opacity="1" fill-rule="evenodd"/><path fill="#4198b2" d="M 223.179688 259.671875 L 223.179688 221.8125 L 261.0625 221.8125 L 261.0625 200.363281 L 253.722656 200.363281 L 253.722656 214.472656 L 215.835938 214.472656 L 215.835938 252.335938 L 201.671875 252.335938 L 201.671875 259.671875 Z M 223.179688 259.671875 " fill-opacity="1" fill-rule="evenodd"/><path fill="#5486c4" d="M 186.472656 252.335938 L 193.414062 252.335938 L 193.414062 259.671875 L 186.472656 259.671875 Z M 186.472656 252.335938 " fill-opacity="1" fill-rule="evenodd"/><path fill="#5486c4" d="M 148.585938 214.472656 L 179.128906 214.472656 L 179.128906 221.8125 L 148.585938 221.8125 Z M 148.585938 214.472656 " fill-opacity="1" fill-rule="evenodd"/><path fill="#5486c4" d="M 253.722656 185.125 L 253.722656 192.507812 L 261.0625 192.507812 L 261.0625 185.125 Z M 215.835938 147.261719 L 215.835938 177.789062 L 223.179688 177.789062 L 223.179688 147.261719 Z M 215.835938 147.261719 " fill-opacity="1" fill-rule="evenodd"/></svg>